<?xml version="1.0" ?><!DOCTYPE svg  PUBLIC '-//W3C//DTD SVG 1.1//EN'  'http://www.w3.org/Graphics/SVG/1.1/DTD/svg11.dtd'><svg height="512px" style="enable-background:new 0 0 512 512;" version="1.1" viewBox="0 0 512 512" width="512px" xml:space="preserve" xmlns="http://www.w3.org/2000/svg" xmlns:xlink="http://www.w3.org/1999/xlink" id="service"><g id="_x32_13_x2C__support_x2C__chat_x2C__customer_x2C__service_x2C__help"><g><path d="M230.604,412.732c-65.429,0-122.066-0.265-187.495-0.265v17.984    c0,4.94,2.02,9.43,5.287,12.697c3.241,3.241,7.758,5.26,12.697,5.26h356.555c4.941,0,9.431-2.019,12.697-5.26    c3.241-3.268,5.261-7.757,5.261-12.697v-17.984C367.281,412.468,298.928,412.732,230.604,412.732 M195.591,81.07    c2.02,0.797,4.092,1.408,6.217,1.887c3.082,0.689,6.296,1.035,9.668,1.035c9.537,0,18.383-3.002,25.609-8.129    c2.497-1.753,4.782-3.745,6.854-5.95l0.293-0.345l0.026-0.027c3.294-3.586,6.003-7.73,7.969-12.272    c-16.258-6.216-34.827-2.392-47.286,10.095C201.011,71.268,197.823,75.917,195.591,81.07z M246.649,76.767    c-1.779,1.674-3.639,3.215-5.631,4.622c-8.342,5.924-18.542,9.404-29.542,9.404c-3.771,0-7.517-0.425-11.13-1.222    c-2.39-0.531-4.729-1.222-6.985-2.072c-0.93,3.587-1.436,7.358-1.436,11.237c0,12.272,4.968,23.377,12.99,31.399    c8.049,8.049,19.153,13.017,31.4,13.017c12.272,0,23.376-4.994,31.399-13.017c8.049-8.022,13.017-19.127,13.017-31.399    c0-2.976-0.291-5.871-0.85-8.688c-6.668-0.133-13.043-1.566-18.888-4.064C255.708,83.727,250.846,80.592,246.649,76.767z     M258.337,60.19c-1.832,4.197-4.25,8.103-7.092,11.608c3.639,3.295,7.836,6.004,12.432,7.943c4.41,1.887,9.218,3.055,14.24,3.427    c-2.206-5.924-5.659-11.263-10.017-15.646l-0.186-0.159C264.926,64.573,261.79,62.156,258.337,60.19z M235.998,193.625h27.917    l-0.822-24.146l-2.922,2.604l-0.026,0.025l-0.055,0.055l-0.026,0.025l-0.026,0.027l-0.053,0.025l-0.025,0.027l-0.026,0.026    l-23.298,20.854C236.422,193.334,236.21,193.492,235.998,193.625z M208.29,170.223l-1.223,23.402h25.662    c-0.212-0.133-0.425-0.291-0.611-0.478L208.29,170.223z M241.762,200.16H229.17v4.305h12.592V200.16z M222.635,204.465v-4.331    H203.64c-1.806,0-3.268-1.46-3.268-3.24l1.515-29.063l-59.372,23.298v13.336H222.635z M248.297,200.134v4.331h80.092v-13.336    l-58.841-23.086l0.983,28.744c0.053,1.779-1.355,3.294-3.162,3.347H248.297z M254.619,168.31V146.58    c-5.686,2.178-11.848,3.373-18.304,3.373c-6.986,0-13.627-1.408-19.711-3.958v23.19l17.851,17.161L254.619,168.31z     M406.622,261.924v-50.925h-74.886h-86.628h-19.287h-86.655H72.118v194.933h11.423V226.726c0-1.807,1.46-3.268,3.267-3.268    h305.123c1.808,0,3.27,1.461,3.27,3.268v35.198H406.622z M409.971,268.459h-0.081h-0.105h-17.771h-0.081h-0.079h-19.658    c-3.799,0-7.253,1.541-9.776,4.064l-0.131,0.133c-2.418,2.497-3.933,5.897-3.933,9.616v45.585c0,3.799,1.567,7.253,4.063,9.776    c2.523,2.497,5.978,4.038,9.776,4.038h46.86c0.718,0,1.409,0.238,1.939,0.664l26.513,16.443v-13.84    c0-1.807,1.487-3.268,3.267-3.268h4.276c3.8,0,7.279-1.541,9.776-4.038c2.497-2.523,4.065-5.978,4.065-9.776v-45.585    c0-3.798-1.568-7.252-4.065-9.775c-2.497-2.497-5.977-4.038-9.776-4.038H409.971z M243.276,426.546    c-1.011-0.982-2.392-1.594-3.906-1.594c-1.514,0-2.895,0.611-3.904,1.594c-0.982,1.01-1.595,2.365-1.595,3.906    c0,1.515,0.612,2.896,1.595,3.878c0.983,1.009,2.364,1.62,3.904,1.62c1.515,0,2.896-0.611,3.878-1.594    c1.011-1.009,1.622-2.39,1.622-3.904S244.259,427.556,243.276,426.546z M239.37,418.418c3.294,0,6.322,1.354,8.474,3.506    l0.134,0.134c2.099,2.151,3.427,5.127,3.427,8.395c0,3.294-1.354,6.296-3.532,8.474l-0.107,0.133    c-2.178,2.1-5.154,3.428-8.395,3.428c-3.32,0-6.322-1.355-8.5-3.534l-0.026-0.053c-2.179-2.151-3.508-5.153-3.508-8.447    c0-3.321,1.355-6.322,3.508-8.502l0.132-0.105C233.128,419.72,236.103,418.418,239.37,418.418z M395.201,362.074v43.857h11.421    v-43.857H395.201z M352.881,275.871c0.983-2.949,2.631-5.605,4.756-7.784l0.186-0.186c3.666-3.692,8.768-5.978,14.372-5.978h16.47    v-31.932H90.076v175.939h298.588v-43.857h-24.996l-30.922,19.18c-1.541,0.93-3.533,0.451-4.488-1.063    c-0.32-0.531-0.479-1.115-0.479-1.7v-16.416h-1.009c-5.605,0-10.68-2.313-14.398-6.004c-3.667-3.693-5.979-8.767-5.979-14.372    V296.14c0-5.605,2.312-10.706,6.005-14.398c3.692-3.692,8.767-5.978,14.372-5.978h26.139L352.881,275.871z M117.252,304.721    c-1.808,0-3.268-1.462-3.268-3.269c0-1.806,1.46-3.267,3.268-3.267h127.804c1.779,0,3.267,1.461,3.267,3.267    c0,1.807-1.488,3.269-3.267,3.269H117.252z M181.141,318.985c-1.779,0-3.268-1.487-3.268-3.267c0-1.807,1.488-3.269,3.268-3.269    h63.915c1.779,0,3.267,1.462,3.267,3.269c0,1.779-1.488,3.267-3.267,3.267H181.141z M117.252,333.225    c-1.808,0-3.268-1.461-3.268-3.268c0-1.78,1.46-3.268,3.268-3.268h83.972c1.806,0,3.268,1.487,3.268,3.268    c0,1.807-1.462,3.268-3.268,3.268H117.252z M117.252,347.49c-1.808,0-3.268-1.462-3.268-3.269c0-1.806,1.46-3.267,3.268-3.267    h127.804c1.779,0,3.267,1.461,3.267,3.267c0,1.807-1.488,3.269-3.267,3.269H117.252z M134.678,361.755    c-1.806,0-3.267-1.487-3.267-3.268c0-1.806,1.461-3.268,3.267-3.268h110.377c1.779,0,3.267,1.462,3.267,3.268    c0,1.78-1.488,3.268-3.267,3.268H134.678z M117.252,375.994c-1.808,0-3.268-1.462-3.268-3.268c0-1.78,1.46-3.268,3.268-3.268    h83.972c1.806,0,3.268,1.487,3.268,3.268c0,1.806-1.462,3.268-3.268,3.268H117.252z M117.252,390.26    c-1.808,0-3.268-1.462-3.268-3.269c0-1.806,1.46-3.268,3.268-3.268h127.804c1.779,0,3.267,1.462,3.267,3.268    c0,1.807-1.488,3.269-3.267,3.269H117.252z M384.867,291.119c-1.781,0-3.241-1.461-3.241-3.268s1.46-3.268,3.241-3.268h57.512    c1.808,0,3.268,1.461,3.268,3.268s-1.46,3.268-3.268,3.268H384.867z M384.867,314.416c-1.781,0-3.241-1.461-3.241-3.268    c0-1.779,1.46-3.24,3.241-3.24h57.512c1.808,0,3.268,1.461,3.268,3.24c0,1.807-1.46,3.268-3.268,3.268H384.867z M174.42,88.96    c4.011-16.417,10.918-36.128,22.101-46.567c10.892-10.148,24.545-16.391,39.794-16.391c15.514,0,29.327,6.189,40.246,16.391    c11.104,10.333,18.169,29.965,22.022,46.567h3.427v19.632h-15.435c0.637-3.188,0.956-6.482,0.956-9.855    c0-3.348-0.319-6.588-0.93-9.776h5.021c-3.587-14.982-9.881-32.489-19.685-41.601c-9.695-9.059-21.915-14.558-35.623-14.558    c-13.415,0-25.502,5.552-35.172,14.558c-9.855,9.191-15.991,26.751-19.711,41.601h4.624c-0.612,3.161-0.93,6.429-0.93,9.776    c0,3.373,0.318,6.668,0.957,9.855h-15.409V88.96H174.42z M80.141,473.221c-1.806,0-3.267-1.46-3.267-3.268    c0-1.806,1.461-3.268,3.267-3.268h210.022c1.806,0,3.268,1.462,3.268,3.268c0,1.808-1.462,3.268-3.268,3.268H80.141z     M203.136,485.999c-1.807,0-3.267-1.461-3.267-3.268s1.46-3.268,3.267-3.268h145.335c1.781,0,3.268,1.461,3.268,3.268    s-1.486,3.268-3.268,3.268H203.136z M363.349,485.999c-1.806,0-3.268-1.461-3.268-3.268s1.462-3.268,3.268-3.268h18.171    c1.805,0,3.267,1.461,3.267,3.268s-1.462,3.268-3.267,3.268H363.349z M71.879,485.601c-1.808,0-3.268-1.462-3.268-3.268    c0-1.78,1.46-3.268,3.268-3.268h68.856c1.806,0,3.267,1.487,3.267,3.268c0,1.806-1.461,3.268-3.267,3.268H71.879z     M420.781,349.854l-2.63-1.646h-45.957c-5.604,0-10.706-2.285-14.372-5.978c-3.691-3.692-5.977-8.793-5.977-14.372v-45.559H326.77    c-3.826,0-7.279,1.541-9.776,4.064c-2.497,2.498-4.063,5.978-4.063,9.776v45.559c0,3.799,1.566,7.278,4.063,9.776    c2.497,2.496,5.95,4.064,9.776,4.064h4.275c1.781,0,3.242,1.461,3.242,3.268v13.813l26.538-16.443    c0.532-0.398,1.222-0.637,1.938-0.637h46.861c3.799,0,7.252-1.568,9.775-4.064C419.906,350.969,420.357,350.438,420.781,349.854z" style="fill-rule:evenodd;clip-rule:evenodd;"/></g></g><g id="Layer_1"/></svg>