<?xml version="1.0" ?><!DOCTYPE svg  PUBLIC '-//W3C//DTD SVG 1.1//EN'  'http://www.w3.org/Graphics/SVG/1.1/DTD/svg11.dtd'><svg id="graph" height="512px" style="enable-background:new 0 0 512 512;" version="1.1" viewBox="0 0 512 512" width="512px" xml:space="preserve" xmlns="http://www.w3.org/2000/svg" xmlns:xlink="http://www.w3.org/1999/xlink"><g id="_x36_92_x2C__Arrows_x2C__forward_x2C__graph_x2C__market_x2C__prediction"><g><path d="M364.217,192.345c-1.211,1.29-3.266,1.343-4.555,0.132c-1.292-1.213-1.356-3.266-0.132-4.558l8.216-8.743h-62.773    c-1.119,0-2.198-0.58-2.791-1.605l-24.771-42.904h-42.059l-28.51,28.497c-0.593,0.579-1.409,0.948-2.292,0.948h-85.067    c-1.777,0-3.239-1.448-3.239-3.24c0-1.789,1.462-3.238,3.239-3.238h83.725l28.509-28.496c0.632-0.633,1.448-0.949,2.292-0.949    h45.247c1.289,0,2.396,0.738,2.923,1.818l24.651,42.717h60.916l-8.216-8.744c-1.225-1.289-1.16-3.344,0.132-4.555    c1.289-1.238,3.344-1.16,4.555,0.131l13.196,13.984l0.053,0.079c0.617,0.581,1,1.423,1,2.317c0,0.924-0.383,1.766-1,2.345    l-0.053,0.053L364.217,192.345z M41.355,425.53c-1.792,0-3.239-1.476-3.239-3.239c0-1.792,1.448-3.239,3.239-3.239h307.613    c1.791,0,3.238,1.447,3.238,3.239c0,1.764-1.447,3.239-3.238,3.239H41.355z M221.486,444.229c-1.777,0-3.239-1.447-3.239-3.239    s1.462-3.239,3.239-3.239h212.867c1.79,0,3.239,1.447,3.239,3.239s-1.449,3.239-3.239,3.239H221.486z M456.133,444.229    c-1.777,0-3.227-1.447-3.227-3.239s1.449-3.239,3.227-3.239h26.627c1.789,0,3.239,1.447,3.239,3.239s-1.45,3.239-3.239,3.239    H456.133z M29.229,443.676c-1.779,0-3.227-1.476-3.227-3.239c0-1.792,1.448-3.239,3.227-3.239h100.868    c1.777,0,3.239,1.447,3.239,3.239c0,1.764-1.462,3.239-3.239,3.239H29.229z M411.519,408.568v-4.055v-0.079v-19.464h-0.053    l-0.04-18.33c0-1.79-1.462-3.239-3.24-3.239c-1.777,0-3.239,1.449-3.239,3.239v18.33h-18.604v-18.33    c0-1.79-1.45-3.239-3.242-3.239c-1.777,0-3.238,1.449-3.238,3.239v18.33h-18.594v-18.33c0-1.79-1.462-3.239-3.239-3.239    c-1.792,0-3.239,1.449-3.239,3.239v18.33H336.17v-18.33c0-1.79-1.45-3.239-3.228-3.239c-1.79,0-3.239,1.449-3.239,3.239v18.33    h-18.607v-18.33c0-1.79-1.447-3.239-3.239-3.239c-1.79,0-3.239,1.449-3.239,3.239v18.33H286.01v-18.33    c0-1.79-1.462-3.239-3.239-3.239s-3.239,1.449-3.239,3.239v18.33h-18.605v-18.33c0-1.79-1.45-3.239-3.239-3.239    c-1.792,0-3.241,1.449-3.241,3.239v18.33h-18.593v-18.33c0-1.79-1.462-3.239-3.239-3.239c-1.79,0-3.239,1.449-3.239,3.239v18.33    h-18.62v-18.33c0-1.79-1.45-3.239-3.227-3.239c-1.778,0-3.239,1.449-3.239,3.239v18.33H185.68v-18.33    c0-1.79-1.448-3.239-3.239-3.239c-1.79,0-3.239,1.449-3.239,3.239v18.33h-18.605v-18.33c0-1.79-1.45-3.239-3.227-3.239    c-1.792,0-3.239,1.449-3.239,3.239v18.33h-18.62v-18.33c0-1.79-1.45-3.239-3.239-3.239c-1.779,0-3.227,1.449-3.227,3.239v18.33    H89.788v-1.737h23.151c1.792,0,3.239-1.449,3.239-3.239c0-1.766-1.448-3.241-3.239-3.241H89.788V358.16h23.151    c1.792,0,3.239-1.448,3.239-3.24c0-1.789-1.448-3.238-3.239-3.238H89.788v-18.62h23.151c1.792,0,3.239-1.449,3.239-3.239    c0-1.766-1.448-3.213-3.239-3.213H89.788v-18.621h23.151c1.792,0,3.239-1.448,3.239-3.24c0-1.789-1.448-3.238-3.239-3.238H89.788    v-18.594h23.151c1.792,0,3.239-1.475,3.239-3.239c0-1.792-1.448-3.239-3.239-3.239H89.788v-18.619h23.151    c1.792,0,3.239-1.449,3.239-3.24c0-1.765-1.448-3.238-3.239-3.238H89.788v-18.596h23.151c1.792,0,3.239-1.447,3.239-3.239    c0-1.79-1.448-3.239-3.239-3.239H89.788v-18.594h23.151c1.792,0,3.239-1.475,3.239-3.238c0-1.792-1.448-3.24-3.239-3.24H89.788    v-18.621h23.151c1.792,0,3.239-1.447,3.239-3.239c0-1.79-1.448-3.239-3.239-3.239H89.788V157.5h23.151    c1.792,0,3.239-1.474,3.239-3.238c0-1.792-1.448-3.24-3.239-3.24H89.788v-18.619h23.151c1.792,0,3.239-1.449,3.239-3.239    c0-1.765-1.448-3.239-3.239-3.239H89.788v-18.596h23.151c1.792,0,3.239-1.447,3.239-3.238c0-1.79-1.448-3.24-3.239-3.24H89.788    V73.328V73.25v-5.479H66.19v317.199v23.598h23.598H411.519z M419.104,360.873c-1.213,1.291-3.268,1.37-4.558,0.131    c-1.29-1.211-1.368-3.266-0.132-4.555l8.218-8.744h-61.629c-1.131,0-2.213-0.579-2.804-1.607l-32.815-56.861v56.335    c0,1.792-1.449,3.239-3.227,3.239h-95.393c-0.816,0-1.658-0.316-2.277-0.947l-40.361-40.35l-25.942,44.931    c-0.526,1.081-1.632,1.818-2.897,1.818h-34.895c-1.792,0-3.241-1.45-3.241-3.239c0-1.792,1.45-3.239,3.241-3.239h33.026    l25.993-45.01l-25.967-25.942H119.97c-1.79,0-3.239-1.447-3.239-3.238c0-1.792,1.449-3.24,3.239-3.24h34.817    c0.895,0,1.713,0.369,2.292,0.947l25.677,25.68l41.638-72.109c0.593-1.029,1.687-1.607,2.792-1.607l135.319-0.027    c1.264,0,2.369,0.738,2.897,1.818l27.337,47.354h27.706l-8.218-8.744c-1.225-1.291-1.158-3.344,0.132-4.557    c1.292-1.211,3.345-1.158,4.569,0.132l13.182,14.012l0.053,0.053c0.632,0.579,1.015,1.421,1.015,2.345    c0,0.921-0.383,1.736-1.015,2.342l-0.053,0.053l-13.182,13.985c-1.225,1.292-3.277,1.37-4.569,0.132    c-1.29-1.211-1.356-3.266-0.132-4.555l8.218-8.744h-29.562c-1.12,0-2.201-0.58-2.793-1.607l-27.456-47.538H229.043l-41.558,71.978    l40.624,40.639h90.808v-65.131c0-1.79,1.448-3.24,3.24-3.24c1.291,0,2.423,0.764,2.923,1.871l37.768,65.421h59.784l-8.218-8.744    c-1.236-1.292-1.158-3.345,0.132-4.558c1.29-1.21,3.345-1.158,4.558,0.133l13.193,14.012l0.053,0.052c0.619,0.579,1,1.421,1,2.345    c0,0.921-0.381,1.737-1,2.342l-0.053,0.053L419.104,360.873z"/></g></g><g id="Layer_1"/></svg>